<svg xmlns="http://www.w3.org/2000/svg" viewBox="0 0 48 48" width="48" height="48"><title>party popper</title><g class="nc-icon-wrapper"><path d="M37.648,32.979,15.021,10.352a1,1,0,0,0-1.656.39L2.052,44.684A1,1,0,0,0,3,46a.987.987,0,0,0,.316-.052L37.258,34.635a1,1,0,0,0,.39-1.656Z" fill="#fa1414"/> <ellipse cx="25.627" cy="22.373" rx="5" ry="17" transform="translate(-8.314 24.674) rotate(-45)" fill="#e2ac4b"/> <path d="M31,25a1,1,0,0,1-.9-1.426c2.516-5.349,8.805-7.2,15.29-4.5a1,1,0,1,1-.77,1.846c-5.451-2.27-10.674-.828-12.71,3.5A1,1,0,0,1,31,25Z" fill="#43a6dd"/> <circle cx="37" cy="9" r="3" fill="#e86c60"/> <circle cx="41" cy="39" r="2" fill="#e2ac4b"/> <circle cx="28" cy="18" r="2" fill="#5a7a84"/> <circle cx="42.5" cy="26.5" r="1.5" fill="#ae453e"/> <circle cx="17.5" cy="4.5" r="1.5" fill="#e2ac4b"/> <path d="M21,19a1,1,0,0,1-.6-1.8A12.026,12.026,0,0,0,24.081,2.394a1,1,0,0,1,1.838-.788A13.975,13.975,0,0,1,21.6,18.8.994.994,0,0,1,21,19Z" fill="#e86c60"/> <path d="M4.172,13.828a1,1,0,0,1-.707-.293,5,5,0,1,1,7.07-7.07A1,1,0,0,1,9.121,7.879a3.072,3.072,0,0,0-4.242,0,3,3,0,0,0,0,4.242,1,1,0,0,1-.707,1.707Z" fill="#43a6dd"/></g></svg>