<svg xmlns="http://www.w3.org/2000/svg" viewBox="0 0 96 96" height="30" width="30"><title>crane</title><g class="nc-icon-wrapper" stroke-width="2" fill="#111111" stroke="#111111"><g transform="translate(16 16)"><rect x="48" y="42" width="12" height="6" fill="none" stroke-linecap="square" stroke-miterlimit="10" data-color="color-2"/><line x1="54" y1="28" x2="54" y2="42" fill="none" stroke-linecap="square" stroke-miterlimit="10" data-color="color-2"/><polyline points="23 23 23 59 14 59 14 23" fill="none" stroke="#111111" stroke-linecap="square" stroke-miterlimit="10"/><line x1="6" y1="59" x2="31" y2="59" fill="none" stroke="#111111" stroke-linecap="square" stroke-miterlimit="10"/><polyline points="27 14 60 17 60 23 4 23 4 16 10 14" fill="none" stroke="#111111" stroke-miterlimit="10" data-cap="butt"/><line x1="23" y1="23" x2="14" y2="32" fill="none" stroke="#111111" stroke-miterlimit="10" data-cap="butt"/><line x1="23" y1="41" x2="14" y2="50" fill="none" stroke="#111111" stroke-miterlimit="10" data-cap="butt"/><line x1="23" y1="41" x2="14" y2="32" fill="none" stroke="#111111" stroke-miterlimit="10" data-cap="butt"/><line x1="23" y1="59" x2="14" y2="50" fill="none" stroke="#111111" stroke-miterlimit="10" data-cap="butt"/><polyline points="10 23 10 5 24 5 27 14 27 23" fill="none" stroke-linecap="square" stroke-miterlimit="10" data-color="color-2"/><path d="M16,5v5a4,4,0,0,0,4,4h7" fill="none" stroke="#111111" stroke-miterlimit="10" data-cap="butt"/></g></g></svg>