<svg xmlns="http://www.w3.org/2000/svg" width="47" height="47" viewBox="0 0 47 47">
  <g id="face-recognition" transform="translate(-2.5 -2.5)">
    <path id="Path_460" data-name="Path 460" d="M4,12.8V4h8.8" fill="none" stroke="#fff" stroke-linecap="square" stroke-miterlimit="10" stroke-width="3"/>
    <path id="Path_461" data-name="Path 461" d="M44.8,12.8V4H36" transform="translate(3.2)" fill="none" stroke="#fff" stroke-linecap="square" stroke-miterlimit="10" stroke-width="3"/>
    <path id="Path_462" data-name="Path 462" d="M4,36v8.8h8.8" transform="translate(0 3.2)" fill="none" stroke="#fff" stroke-linecap="square" stroke-miterlimit="10" stroke-width="3"/>
    <path id="Path_463" data-name="Path 463" d="M44.8,36v8.8H36" transform="translate(3.2 3.2)" fill="none" stroke="#fff" stroke-linecap="square" stroke-miterlimit="10" stroke-width="3"/>
    <path id="Path_464" data-name="Path 464" d="M40.8,41l-6.9-2.3a4.4,4.4,0,0,1-3.009-4.159l-.007-2.171A14.934,14.934,0,0,0,36.4,21.2V19.376A11.25,11.25,0,0,0,26.132,8.024,11,11,0,0,0,14.4,19v2.2a14.915,14.915,0,0,0,5.5,11.168v2.16a4.4,4.4,0,0,1-3.009,4.18L10,41" transform="translate(0.6 0.4)" fill="none" stroke="#3bd55a" stroke-linecap="square" stroke-miterlimit="10" stroke-width="3"/>
  </g>
</svg>
