<svg xmlns="http://www.w3.org/2000/svg" width="13.333" height="16" viewBox="0 0 13.333 16">
  <path id="Path_679" data-name="Path 679" d="M14.666,6.666h-2V4.006A3.973,3.973,0,0,0,8.733,0h-.06A3.96,3.96,0,0,0,4.667,3.933V6.666h-2A.667.667,0,0,0,2,7.333v8A.667.667,0,0,0,2.667,16h12a.667.667,0,0,0,.667-.667v-8A.667.667,0,0,0,14.666,6.666Zm-6,6A1.333,1.333,0,1,1,10,11.333,1.333,1.333,0,0,1,8.667,12.666Zm2.667-6H6V3.94A2.638,2.638,0,0,1,8.639,1.333h.087A2.638,2.638,0,0,1,11.333,4Z" transform="translate(-2 0)" fill="#acacac"/>
</svg>
