<svg xmlns="http://www.w3.org/2000/svg" width="32" height="32" viewBox="0 0 32 32">
  <g id="Group_10634" data-name="Group 10634" transform="translate(-316 -180)">
    <circle id="Ellipse_1558" data-name="Ellipse 1558" cx="16" cy="16" r="16" transform="translate(316 180)" fill="#ccc" opacity="0.297"/>
    <path id="Path_395" data-name="Path 395" d="M1,16H4a.908.908,0,0,0,.7-.3l11-11a.967.967,0,0,0,0-1.4l-3-3a.967.967,0,0,0-1.4,0l-11,11A.908.908,0,0,0,0,12v3A.945.945,0,0,0,1,16Zm1-3.6,10-10L13.6,4,3.6,14H2Z" transform="translate(324 188)" fill="#ccc"/>
  </g>
</svg>
