<svg xmlns="http://www.w3.org/2000/svg" width="204.959" height="32.595" viewBox="0 0 204.959 32.595">
  <g id="Group_10385" data-name="Group 10385" transform="translate(-86 -570)">
    <g id="Group_911" data-name="Group 911" transform="translate(-490.445 151.745)">
      <path id="Path_10392" data-name="Path 10392" d="M-6869.138,1777.125l-3.312,4.439h-15.665v23.46h23.419v-11.846l4.418-5.769v21.806h-32.277v-32.09Z" transform="translate(7552 -1358.69)" fill="#fff"/>
      <path id="Path_10394" data-name="Path 10394" d="M-6847.44,1788.5l3.954,4.481,12.93-16.727,3.3,2.748-16.234,20.968-7.435-8.44Z" transform="translate(7519.008 -1358)" fill="#3bd55a"/>
      <path id="Path_10395" data-name="Path 10395" d="M17.806,12.94v.516a5.613,5.613,0,0,1-1.776,4.211,6.464,6.464,0,0,1-4.679,1.709,6.813,6.813,0,0,1-5.041-2,6.676,6.676,0,0,1-1.986-4.9,6.77,6.77,0,0,1,6.951-6.894,6.675,6.675,0,0,1,3.371.878,6.243,6.243,0,0,1,2.377,2.349l-.9.535a5.073,5.073,0,0,0-1.976-2.024,5.6,5.6,0,0,0-2.874-.764A5.712,5.712,0,0,0,7.007,8.271a5.79,5.79,0,0,0-1.671,4.211,5.8,5.8,0,0,0,6.015,5.92,5.535,5.535,0,0,0,3.8-1.279,4.7,4.7,0,0,0,1.623-3.227H11.1V12.94Zm3.246,5.271h6.684v.955h-7.7V5.8h7.6v.955H21.052v5.194h6.111V12.9H21.052ZM38.125,5.8v.955h-4.2V19.166H32.892V6.753h-4.2V5.8ZM7.628,34.7V24.272H4.572V37.639H12.4V34.7Zm5.805-10.427V37.639h3.055V24.272Zm11.42,13.635a6.619,6.619,0,0,0,5.729-3.094l-2.635-1.528a3.434,3.434,0,0,1-3.094,1.642,3.7,3.7,0,0,1-3.9-3.972,3.7,3.7,0,0,1,3.9-3.972,3.456,3.456,0,0,1,3.094,1.642L30.581,27.1A6.667,6.667,0,0,0,24.853,24,6.776,6.776,0,0,0,17.9,30.955,6.776,6.776,0,0,0,24.853,37.906ZM34.764,34.7V32.33h4.774v-2.9H34.764V27.213h5.251V24.272H31.708V37.639h8.4V34.7ZM48.971,24.272v7.257l-5.156-7.257H41.524V37.639h3.055V30.383l5.156,7.257h2.292V24.272ZM58.5,37.906c2.9,0,4.965-1.528,4.965-4.106,0-2.826-2.272-3.533-4.3-4.144-2.082-.63-2.406-1.05-2.406-1.661,0-.535.477-1.012,1.432-1.012a2.342,2.342,0,0,1,2.311,1.547l2.578-1.509A5.185,5.185,0,0,0,58.195,24c-2.311,0-4.488,1.49-4.488,4.068,0,2.559,1.948,3.514,3.934,4.068,2.005.554,2.769.878,2.769,1.7,0,.516-.363,1.088-1.814,1.088a2.8,2.8,0,0,1-2.807-1.852L53.153,34.6C53.9,36.57,55.693,37.906,58.5,37.906ZM67.647,34.7V32.33h4.774v-2.9H67.647V27.213H72.9V24.272H64.592V37.639h8.4V34.7ZM79.755,24.272H74.408V37.639h5.347a6.473,6.473,0,0,0,6.493-6.684A6.473,6.473,0,0,0,79.755,24.272Zm0,10.427H77.463V27.213h2.292a3.441,3.441,0,0,1,3.552,3.743A3.441,3.441,0,0,1,79.755,34.7Z" transform="translate(695.157 412.943)" fill="#fff"/>
    </g>
    <text id="Body" transform="translate(86 590)" fill="#fff" font-size="11" font-family="Gilroy-Bold, Gilroy" font-weight="700"><tspan x="0" y="0">POWERED BY</tspan></text>
  </g>
</svg>
