<svg xmlns="http://www.w3.org/2000/svg" width="20.148" height="21.203" viewBox="0 0 20.148 21.203">
  <g id="Group_10647" data-name="Group 10647" transform="translate(-6297.207 -13929.024)">
    <g id="Group_10653" data-name="Group 10653">
      <g id="Path_10393" data-name="Path 10393" transform="translate(6287.447 13969.381)" fill="#3b86ff">
        <path d="M 19.83251571655273 -20.39162445068359 L 19.24222564697266 -20.82046508789062 L 17.36384773254395 -22.18509483337402 L 15.05340671539307 -22.18509483337402 L 14.32426643371582 -22.18509483337402 L 14.1013069152832 -22.87931442260742 L 13.39599132537842 -25.07540321350098 L 11.5191764831543 -26.43890380859375 L 10.93345642089844 -26.86442375183105 L 11.15483665466309 -27.55371475219727 L 11.86187744140625 -29.75517845153809 L 11.15483665466309 -31.95663452148438 L 10.93345642089844 -32.64593505859375 L 11.5191764831543 -33.07145309448242 L 13.39598751068115 -34.43495941162109 L 14.1013069152832 -36.63105392456055 L 14.32426643371582 -37.32526397705078 L 15.05340671539307 -37.32526397705078 L 17.36384773254395 -37.32526397705078 L 19.24222564697266 -38.68989562988281 L 19.83251571655273 -39.11873245239258 L 20.42104721069336 -38.68748474121094 L 22.28007316589355 -37.32526397705078 L 24.6065673828125 -37.32526397705078 L 25.33570671081543 -37.32526397705078 L 25.55866622924805 -36.63105392456055 L 26.26398658752441 -34.43495941162109 L 28.14079666137695 -33.07145309448242 L 28.7305965423584 -32.64297485351562 L 28.50309562683105 -31.95036506652832 L 27.78205680847168 -29.75518417358398 L 28.50309562683105 -27.55999374389648 L 28.7305965423584 -26.86738395690918 L 28.14079666137695 -26.43890380859375 L 26.26301956176758 -25.07470512390137 L 25.55800628662109 -22.89558410644531 L 25.51506614685059 -22.76285934448242 L 25.51506614685059 -22.18509483337402 L 24.51506614685059 -22.18509483337402 L 22.28007316589355 -22.18509483337402 L 20.42104721069336 -20.82287406921387 L 19.83251571655273 -20.39162445068359 Z" stroke="none"/>
        <path d="M 19.82998657226562 -21.62950325012207 L 21.95290565490723 -23.18509483337402 L 24.51506614685059 -23.18509483337402 L 24.51506614685059 -23.20340347290039 L 24.6065673828125 -23.20340347290039 L 25.41181564331055 -25.69234466552734 L 27.55303573608398 -27.24793434143066 L 26.72949600219727 -29.75518417358398 L 27.55303573608398 -32.26242446899414 L 25.41181564331055 -33.81802368164062 L 24.6065673828125 -36.32526397705078 L 21.95290565490723 -36.32526397705078 L 19.82998657226562 -37.88085556030273 L 17.68875694274902 -36.32526397705078 L 15.05340671539307 -36.32526397705078 L 14.24815654754639 -33.81802368164062 L 12.10693645477295 -32.26242446899414 L 12.91218662261963 -29.75518417358398 L 12.10693645477295 -27.24793434143066 L 14.24815654754639 -25.69234466552734 L 15.05340671539307 -23.18509483337402 L 17.68875694274902 -23.18509483337402 L 19.82998657226562 -21.62950325012207 M 19.83504676818848 -19.15374374389648 L 17.03895378112793 -21.18509483337402 L 13.59512615203857 -21.18509483337402 L 12.54382610321045 -24.45845222473145 L 9.759976387023926 -26.48091506958008 L 10.81156921386719 -29.75518226623535 L 9.759976387023926 -33.02944564819336 L 12.54382991790771 -35.05192184448242 L 13.59512615203857 -38.32526397705078 L 17.03895378112793 -38.32526397705078 L 19.83504676818848 -40.35661315917969 L 22.60723686218262 -38.32526397705078 L 26.06484603881836 -38.32526397705078 L 27.11614418029785 -35.05192184448242 L 29.90815734863281 -33.02351379394531 L 28.83461761474609 -29.75518226623535 L 29.90815734863281 -26.4868335723877 L 27.11423301696777 -24.45706367492676 L 26.51506614685059 -22.60510444641113 L 26.51506614685059 -21.18509483337402 L 22.60723686218262 -21.18509483337402 L 19.83504676818848 -19.15374374389648 Z" stroke="none" fill="#fff"/>
      </g>
      <path id="Path_10920" data-name="Path 10920" d="M1.924-.526a.191.191,0,0,1-.067-.012A.137.137,0,0,1,1.8-.578L.051-2.328A.168.168,0,0,1,0-2.451a.168.168,0,0,1,.051-.123.168.168,0,0,1,.123-.051A.168.168,0,0,1,.3-2.574L1.924-.947,6.7-5.725a.168.168,0,0,1,.123-.051.168.168,0,0,1,.123.051A.17.17,0,0,1,7-5.6a.17.17,0,0,1-.051.125l-4.9,4.9a.137.137,0,0,1-.056.039A.191.191,0,0,1,1.924-.526Z" transform="translate(6303.629 13942.565)" fill="#fff" stroke="#fff" stroke-width="1"/>
    </g>
  </g>
</svg>
