<svg xmlns="http://www.w3.org/2000/svg" width="122.41" height="170.175" viewBox="0 0 122.41 170.175">
  <g id="Group_10353" data-name="Group 10353" transform="translate(0 0)">
    <path id="Exclusion_1" data-name="Exclusion 1" d="M35.857,144.8,0,108.57V27.393H0c.013,0,1.044.073,2.89.073a87.519,87.519,0,0,0,26.464-4.194,66.77,66.77,0,0,0,16.98-8.249A55.081,55.081,0,0,0,61.2,0V18.412A86.846,86.846,0,0,1,43.627,30.239,89.179,89.179,0,0,1,27.735,36.48a71.26,71.26,0,0,1-15.949,2.853l.52,64,32.058,33.349L35.858,144.8h0ZM109.051,122.8h0l-8.643-8.672,9.7-10.794.521-64h-.007A71.6,71.6,0,0,1,94.677,36.48a89.181,89.181,0,0,1-15.892-6.241A86.847,86.847,0,0,1,61.209,18.412V0A55.079,55.079,0,0,0,76.077,15.022a66.771,66.771,0,0,0,16.979,8.249,87.513,87.513,0,0,0,26.464,4.2c1.815,0,2.879-.072,2.89-.073V108.57L109.051,122.8Z" transform="translate(0 0)" fill="#fff"/>
    <path id="Path_10510" data-name="Path 10510" d="M3344.891,3478.9l8.879-8.668,10.724,10.758,33.725-33.618,8.735,8.738-42.459,42.133Z" transform="translate(-3303.329 -3328.07)" fill="#3bd55a"/>
  </g>
</svg>
