<svg id="calendar-date-2" xmlns="http://www.w3.org/2000/svg" width="24" height="24" viewBox="0 0 24 24">
  <rect id="Rectangle_264" data-name="Rectangle 264" width="24" height="24" fill="none"/>
  <g id="Group_490" data-name="Group 490">
    <path id="Path_585" data-name="Path 585" d="M19,3V1a1,1,0,1,0-2,0V3Z" fill="#1c1c24"/>
    <path id="Path_586" data-name="Path 586" d="M7,3V1A1,1,0,1,0,5,1V3Z" fill="#1c1c24"/>
    <path id="Path_587" data-name="Path 587" d="M21,23H3a3,3,0,0,1-3-3V7A3,3,0,0,1,3,4H21a3,3,0,0,1,3,3V20A3,3,0,0,1,21,23ZM22,9H2V20a1,1,0,0,0,1,1H21a1,1,0,0,0,1-1Z" fill="#1c1c24"/>
    <rect id="Rectangle_265" data-name="Rectangle 265" width="4" height="3" transform="translate(4 11)" fill="#1c1c24"/>
    <rect id="Rectangle_266" data-name="Rectangle 266" width="4" height="3" transform="translate(10 11)" fill="#1c1c24"/>
    <rect id="Rectangle_267" data-name="Rectangle 267" width="4" height="3" transform="translate(4 16)" fill="#1c1c24"/>
    <rect id="Rectangle_268" data-name="Rectangle 268" width="4" height="3" transform="translate(10 16)" fill="#1c1c24"/>
    <rect id="Rectangle_269" data-name="Rectangle 269" width="4" height="3" transform="translate(16 11)" fill="#1c1c24"/>
  </g>
</svg>
