<svg xmlns="http://www.w3.org/2000/svg" viewBox="0 0 32 32" height="32" width="32"><title>screen rotation</title><g class="nc-icon-wrapper" fill="#000000"><path d="M10,32H9c-4.963,0-9-4.038-9-9v-1h2v1c0,3.86,3.141,7,7,7h1V32z" data-color="color-2"/> <path d="M32,10h-2V9c0-3.86-3.141-7-7-7h-1V0h1c4.963,0,9,4.038,9,9V10z" data-color="color-2"/> <path fill="#000000" d="M11.404,1.504l-9.899,9.899c-1.17,1.17-1.17,3.073,0,4.243l14.849,14.849c1.17,1.17,3.073,1.17,4.243,0 l9.899-9.899c1.17-1.17,1.17-3.073,0-4.243L15.646,1.504C14.477,0.335,12.574,0.335,11.404,1.504z M27.667,16.354 c0.391,0.391,0.391,1.024,0,1.414l-9.899,9.899c-0.391,0.391-1.024,0.391-1.414,0L4.333,15.646c-0.391-0.391-0.391-1.024,0-1.414 l9.899-9.899c0.391-0.391,1.024-0.391,1.414,0L27.667,16.354z"/></g></svg>