<svg xmlns="http://www.w3.org/2000/svg" width="144.188" height="26.563" viewBox="0 0 144.188 26.563">
  <g id="Group_428" data-name="Group 428" transform="translate(-114 -102)">
    <g id="get-licensed-logo" transform="translate(169.9 102)">
      <path id="Path_481" data-name="Path 481" d="M38.217,7.326l-.73.73a5.307,5.307,0,0,0-1.793-1.2,5,5,0,0,0-1.926-.4,4.18,4.18,0,0,0-2.191.6,3.931,3.931,0,0,0-1.594,1.527,3.892,3.892,0,0,0-.6,2.059,4.12,4.12,0,0,0,.6,2.125,4.265,4.265,0,0,0,1.66,1.594,4.66,4.66,0,0,0,2.324.6,3.937,3.937,0,0,0,2.59-.863,3.4,3.4,0,0,0,1.262-2.191H34.565v-.93h4.25a4.864,4.864,0,0,1-1.328,3.586A4.864,4.864,0,0,1,33.9,15.892a5.354,5.354,0,0,1-4.316-1.859,4.976,4.976,0,0,1-1.2-3.32,5.083,5.083,0,0,1,.73-2.59,5.176,5.176,0,0,1,1.926-1.859,6.122,6.122,0,0,1,5.113-.2,4.423,4.423,0,0,1,2.059,1.262Zm2.324-1.66h5.645V6.6H41.537V9.65H46.12v.93H41.537v3.852H46.12v.93H40.541Zm6.309.93v-.93h5.379V6.6H50.037v8.832h-1V6.6H46.85ZM28.788,18.283h1.859v8.035H33.37v1.793H28.787V18.283Zm5.844,0h1.859v9.828H34.631ZM47.58,20.009l-1.328,1.262a3.971,3.971,0,0,0-2.988-1.395,3.479,3.479,0,0,0-2.391.93,3.26,3.26,0,0,0-1,2.391,3.493,3.493,0,0,0,.4,1.727,2.606,2.606,0,0,0,1.2,1.2,3.944,3.944,0,0,0,1.727.465,3.381,3.381,0,0,0,1.461-.332,5.1,5.1,0,0,0,1.461-1.129l1.262,1.328a6.243,6.243,0,0,1-2.059,1.461,5.849,5.849,0,0,1-2.191.4,4.854,4.854,0,0,1-3.719-1.461,4.953,4.953,0,0,1-1.461-3.719,4.705,4.705,0,0,1,.664-2.59,5.189,5.189,0,0,1,1.926-1.859,5.262,5.262,0,0,1,2.656-.664,5.661,5.661,0,0,1,2.324.531,6.043,6.043,0,0,1,2.059,1.461Zm1.594-1.727h5.379v1.859h-3.52v1.793h3.52v1.793h-3.52v2.59h3.52v1.859H49.174Zm7.105,0h1.793l4.184,6.441V18.283h1.859v9.828H62.323L58.139,21.67v6.441H56.28Zm15.207,1.328-1.395,1.2a1.96,1.96,0,0,0-1.461-1,.812.812,0,0,0-.6.2.672.672,0,0,0-.266.465.717.717,0,0,0,.2.465A10.512,10.512,0,0,0,69.362,22.2c.73.6,1.129,1,1.328,1.129a2.954,2.954,0,0,1,.8,1.129,3.128,3.128,0,0,1,.266,1.129,2.525,2.525,0,0,1-.863,1.992,2.961,2.961,0,0,1-2.191.8,3.4,3.4,0,0,1-1.859-.531,4.06,4.06,0,0,1-1.328-1.594l1.594-.93c.465.863,1,1.328,1.66,1.328a1.059,1.059,0,0,0,.8-.266.922.922,0,0,0,.332-.664.951.951,0,0,0-.266-.664,8.466,8.466,0,0,0-1.062-1,9.763,9.763,0,0,1-2.059-1.992,2.339,2.339,0,0,1-.465-1.395,2.236,2.236,0,0,1,.8-1.727,2.771,2.771,0,0,1,1.926-.73,3.569,3.569,0,0,1,1.395.332,3.227,3.227,0,0,1,1.328,1.063Zm1.926-1.328h5.379v1.859h-3.52v1.793h3.52v1.793h-3.52v2.59h3.52v1.859H73.412Zm7.105,0h2.191a7.9,7.9,0,0,1,3.188.531,4.307,4.307,0,0,1,1.727,1.727,5.422,5.422,0,0,1,.664,2.789,5.173,5.173,0,0,1-.4,2.059,4.476,4.476,0,0,1-1.062,1.594,3.7,3.7,0,0,1-1.461.863,11.172,11.172,0,0,1-2.656.266H80.452V18.283Zm1.859,1.793v6.176h.863a4.391,4.391,0,0,0,1.859-.266,1.953,1.953,0,0,0,.93-1,3.493,3.493,0,0,0,.4-1.727,3.27,3.27,0,0,0-.863-2.457,3.486,3.486,0,0,0-2.523-.8h-.664ZM20.487,5.4l-1,2.324h2.457v18H2.491v-18H16.37L17.5,5.4H.1V28.045H24.338V5.4Z" transform="translate(0 -1.814)" fill="#fff"/>
      <path id="Path_482" data-name="Path 482" d="M7.6,15.34a4.255,4.255,0,0,1,4.184-1.859c.2-.531,2.523,4.516,2.523,4.516s7.3-17.73,8.367-18a3.262,3.262,0,0,1,1.063.863s-3.719,7.039-7.5,20.188c-1.062,1.2-3.586,1.395-3.586,1.395S8.463,15.738,7.6,15.34Z" transform="translate(-2.52)" fill="#fff"/>
    </g>
    <text id="Body" transform="translate(114 124)" fill="#fff" font-size="11" font-family="Helvetica-Bold, Helvetica" font-weight="700"><tspan x="0" y="0">PART OF</tspan></text>
  </g>
</svg>
