<svg xmlns="http://www.w3.org/2000/svg" width="152.855" height="30.207" viewBox="0 0 152.855 30.207">
  <path id="Path_402" data-name="Path 402" d="M-144.514-44.936V-53.59h4.933a13.3,13.3,0,0,1,2.1.162,4.893,4.893,0,0,1,1.779.627,3.415,3.415,0,0,1,1.233,1.314A4.619,4.619,0,0,1-134-49.263a4.619,4.619,0,0,1-.465,2.224,3.415,3.415,0,0,1-1.233,1.314,4.893,4.893,0,0,1-1.779.627,13.3,13.3,0,0,1-2.1.162Zm-6.349-13.587v28.873h6.349V-40h6.672a12.026,12.026,0,0,0,4.61-.789,8.625,8.625,0,0,0,3.094-2.083,7.973,7.973,0,0,0,1.739-2.972,10.981,10.981,0,0,0,.546-3.417A10.92,10.92,0,0,0-128.4-52.7a8,8,0,0,0-1.739-2.952,8.625,8.625,0,0,0-3.094-2.083,12.026,12.026,0,0,0-4.61-.789Zm32.269,13.061V-53.59h6.955a4.872,4.872,0,0,1,3.275.95,3.848,3.848,0,0,1,1.092,3.053,4.028,4.028,0,0,1-1.092,3.154,4.8,4.8,0,0,1-3.275.971Zm-6.349-13.061v28.873h6.349V-40.933h6.349a4.725,4.725,0,0,1,3.437,1.051,5.734,5.734,0,0,1,1.375,3.316q.243,1.739.364,3.639a11.194,11.194,0,0,0,.647,3.275h6.349a4.249,4.249,0,0,1-.667-1.476,12.749,12.749,0,0,1-.324-1.84q-.1-.971-.142-1.9t-.081-1.618a17.353,17.353,0,0,0-.3-2.184,7.342,7.342,0,0,0-.708-2,5.493,5.493,0,0,0-1.254-1.577,4.9,4.9,0,0,0-1.941-.991v-.081a6.732,6.732,0,0,0,3.5-2.831,8.681,8.681,0,0,0,1.072-4.408,8.1,8.1,0,0,0-.586-3.093,7.46,7.46,0,0,0-1.7-2.527,8.05,8.05,0,0,0-2.669-1.719,9.294,9.294,0,0,0-3.5-.627ZM-91.7-43.966a15.8,15.8,0,0,1,.425-3.68,9.746,9.746,0,0,1,1.355-3.174A6.872,6.872,0,0,1-87.5-53.044a7.411,7.411,0,0,1,3.639-.829,7.411,7.411,0,0,1,3.639.829,6.872,6.872,0,0,1,2.426,2.224,9.746,9.746,0,0,1,1.355,3.174,15.8,15.8,0,0,1,.425,3.68,14.7,14.7,0,0,1-.425,3.538,9.562,9.562,0,0,1-1.355,3.093,6.943,6.943,0,0,1-2.426,2.2,7.411,7.411,0,0,1-3.639.829A7.411,7.411,0,0,1-87.5-35.13a6.943,6.943,0,0,1-2.426-2.2,9.562,9.562,0,0,1-1.355-3.093A14.7,14.7,0,0,1-91.7-43.966Zm-6.349,0a17.438,17.438,0,0,0,.971,5.884,14.052,14.052,0,0,0,2.79,4.751,12.781,12.781,0,0,0,4.468,3.174A14.805,14.805,0,0,0-83.857-29a14.767,14.767,0,0,0,5.985-1.152,12.825,12.825,0,0,0,4.448-3.174,14.052,14.052,0,0,0,2.79-4.751,17.438,17.438,0,0,0,.971-5.884,18.041,18.041,0,0,0-.971-6.005,14.425,14.425,0,0,0-2.79-4.832,12.8,12.8,0,0,0-4.448-3.235,14.546,14.546,0,0,0-5.985-1.173,14.583,14.583,0,0,0-5.965,1.173A12.758,12.758,0,0,0-94.29-54.8a14.425,14.425,0,0,0-2.79,4.832A18.041,18.041,0,0,0-98.051-43.966Zm38.335-6.591v-6.268h-5.742v6.268h-3.478v3.842h3.478v12.334a5.342,5.342,0,0,0,.526,2.548,3.746,3.746,0,0,0,1.436,1.5,5.96,5.96,0,0,0,2.1.708,16.763,16.763,0,0,0,2.527.182q.849,0,1.739-.04a13.664,13.664,0,0,0,1.618-.162V-34.1a8.043,8.043,0,0,1-.849.121q-.445.04-.93.04a2.81,2.81,0,0,1-1.941-.485,2.81,2.81,0,0,1-.485-1.941V-46.716h4.206v-3.842Zm19.976,8.209H-49.08a6.591,6.591,0,0,1,.263-1.375,4.221,4.221,0,0,1,.768-1.456,4.35,4.35,0,0,1,1.456-1.152,5,5,0,0,1,2.285-.465,4.033,4.033,0,0,1,3.134,1.132A6.637,6.637,0,0,1-39.739-42.348Zm-9.341,3.639H-34a14.759,14.759,0,0,0-.4-4.65,11.383,11.383,0,0,0-1.84-3.963,9.281,9.281,0,0,0-3.255-2.77,9.941,9.941,0,0,0-4.65-1.031,10.828,10.828,0,0,0-4.347.849,10.278,10.278,0,0,0-3.377,2.325,10.249,10.249,0,0,0-2.184,3.5,12.193,12.193,0,0,0-.768,4.367,12.729,12.729,0,0,0,.748,4.448,10.1,10.1,0,0,0,2.123,3.478A9.249,9.249,0,0,0-48.6-29.914a11.941,11.941,0,0,0,4.448.789,10.951,10.951,0,0,0,6.066-1.618,9.6,9.6,0,0,0,3.72-5.378h-5.055a3.607,3.607,0,0,1-1.537,1.84,5.119,5.119,0,0,1-2.992.869,5.133,5.133,0,0,1-3.72-1.254A5.8,5.8,0,0,1-49.08-38.709ZM-17.417-43.2H-11.8a7.866,7.866,0,0,0-.971-3.5,7.9,7.9,0,0,0-2.2-2.467,9.552,9.552,0,0,0-3.073-1.476,13.107,13.107,0,0,0-3.579-.485,11.4,11.4,0,0,0-4.529.849,9.532,9.532,0,0,0-3.356,2.366,10.144,10.144,0,0,0-2.083,3.6A13.928,13.928,0,0,0-32.3-39.8a11.709,11.709,0,0,0,.768,4.307,10.036,10.036,0,0,0,2.143,3.377,9.549,9.549,0,0,0,3.336,2.2,11.442,11.442,0,0,0,4.307.789,10.441,10.441,0,0,0,6.834-2.184,9.473,9.473,0,0,0,3.235-6.349h-5.54a5.451,5.451,0,0,1-1.4,3.093,4.207,4.207,0,0,1-3.174,1.152,4.056,4.056,0,0,1-2.265-.607,4.53,4.53,0,0,1-1.476-1.557,7.131,7.131,0,0,1-.789-2.123,11.357,11.357,0,0,1-.243-2.3,11.845,11.845,0,0,1,.243-2.366,6.987,6.987,0,0,1,.829-2.184,4.981,4.981,0,0,1,1.516-1.618,4.032,4.032,0,0,1,2.3-.627A3.85,3.85,0,0,1-17.417-43.2Zm15.2-7.36v-6.268H-7.955v6.268h-3.478v3.842h3.478v12.334a5.342,5.342,0,0,0,.526,2.548,3.746,3.746,0,0,0,1.436,1.5,5.96,5.96,0,0,0,2.1.708,16.763,16.763,0,0,0,2.527.182q.849,0,1.739-.04a13.664,13.664,0,0,0,1.618-.162V-34.1a8.043,8.043,0,0,1-.849.121q-.445.04-.93.04a2.81,2.81,0,0,1-1.941-.485,2.81,2.81,0,0,1-.485-1.941V-46.716H1.993v-3.842Z" transform="translate(150.862 59.211)" fill="#fff"/>
</svg>
