<svg xmlns="http://www.w3.org/2000/svg" width="44" height="44" viewBox="0 0 44 44">
  <g id="courses" transform="translate(5355 23026)" opacity="0.7">
    <rect id="Rectangle_37" data-name="Rectangle 37" width="44" height="44" transform="translate(-5355 -23026)" fill="none"/>
    <g id="badge-13" transform="translate(-5345 -23015)">
      <line id="Line_43" data-name="Line 43" x2="4" transform="translate(15 11)" fill="none" stroke="#1c1c1c" stroke-linecap="square" stroke-miterlimit="10" stroke-width="2"/>
      <line id="Line_44" data-name="Line 44" x2="4" transform="translate(15 15)" fill="none" stroke="#1c1c1c" stroke-linecap="square" stroke-miterlimit="10" stroke-width="2"/>
      <path id="Path_432" data-name="Path 432" d="M4,17a3,3,0,0,1,3-3H9a3,3,0,0,1,3,3Z" fill="#1c1c1c"/>
      <path id="Path_433" data-name="Path 433" d="M19,3a2,2,0,0,1-4,0H9A2,2,0,0,1,5,3H1V21H23V3Z" fill="none" stroke="#1c1c1c" stroke-linecap="square" stroke-miterlimit="10" stroke-width="2"/>
      <circle id="Ellipse_80" data-name="Ellipse 80" cx="2" cy="2" r="2" transform="translate(6 9)" fill="#1c1c1c"/>
    </g>
    <g id="badge-13-2" data-name="badge-13" transform="translate(-5345 -23015)">
      <line id="Line_43-2" data-name="Line 43" x2="4" transform="translate(15 11)" fill="none" stroke="#1c1c1c" stroke-linecap="square" stroke-miterlimit="10" stroke-width="2"/>
      <line id="Line_44-2" data-name="Line 44" x2="4" transform="translate(15 15)" fill="none" stroke="#1c1c1c" stroke-linecap="square" stroke-miterlimit="10" stroke-width="2"/>
      <path id="Path_432-2" data-name="Path 432" d="M4,17a3,3,0,0,1,3-3H9a3,3,0,0,1,3,3Z" fill="#1c1c1c"/>
      <path id="Path_433-2" data-name="Path 433" d="M19,3a2,2,0,0,1-4,0H9A2,2,0,0,1,5,3H1V21H23V3Z" fill="none" stroke="#1c1c1c" stroke-linecap="square" stroke-miterlimit="10" stroke-width="2"/>
      <circle id="Ellipse_80-2" data-name="Ellipse 80" cx="2" cy="2" r="2" transform="translate(6 9)" fill="#1c1c1c"/>
    </g>
  </g>
</svg>
