<svg id="Component_21_110" data-name="Component 21 – 110" xmlns="http://www.w3.org/2000/svg" width="40" height="37" viewBox="0 0 40 37">
  <path id="Intersection_1" data-name="Intersection 1" d="M122,37h28a12,12,0,0,1,12,12V73.88q-1.485.119-3,.12A37,37,0,0,1,122,37Z" transform="translate(-122 -37)" fill="#1c1c1c" opacity="0.043"/>
  <g id="lock" transform="translate(16 7)">
    <path id="Path_679" data-name="Path 679" d="M14.666,6.666h-2V4.006A3.973,3.973,0,0,0,8.733,0h-.06A3.96,3.96,0,0,0,4.667,3.933V6.666h-2A.667.667,0,0,0,2,7.333v8A.667.667,0,0,0,2.667,16h12a.667.667,0,0,0,.667-.667v-8A.667.667,0,0,0,14.666,6.666Zm-6,6A1.333,1.333,0,1,1,10,11.333,1.333,1.333,0,0,1,8.667,12.666Zm2.667-6H6V3.94A2.638,2.638,0,0,1,8.639,1.333h.087A2.638,2.638,0,0,1,11.333,4Z" transform="translate(0 0)" fill="#acacac"/>
  </g>
</svg>
