<svg xmlns="http://www.w3.org/2000/svg" width="23.667" height="24" viewBox="0 0 23.667 24">
  <g id="settings-gear" transform="translate(-0.167)">
    <circle id="Ellipse_4" data-name="Ellipse 4" cx="3" cy="3" r="3" transform="translate(9 9)" fill="none" stroke="#1c1c1c" stroke-linecap="square" stroke-miterlimit="10" stroke-width="2"/>
    <path id="Path_37" data-name="Path 37" d="M20,12a8.049,8.049,0,0,0-.188-1.713l2.714-2.055-2-3.464L17.383,6.094a7.987,7.987,0,0,0-2.961-1.719L14,1H10L9.578,4.375A7.987,7.987,0,0,0,6.617,6.094L3.474,4.768l-2,3.464,2.714,2.055a7.9,7.9,0,0,0,0,3.426L1.474,15.768l2,3.464,3.143-1.326a7.987,7.987,0,0,0,2.961,1.719L10,23h4l.422-3.375a7.987,7.987,0,0,0,2.961-1.719l3.143,1.326,2-3.464-2.714-2.055A8.049,8.049,0,0,0,20,12Z" fill="none" stroke="#1c1c1c" stroke-linecap="square" stroke-miterlimit="10" stroke-width="2"/>
  </g>
</svg>
